# xmcd
#
# Track frame offsets:
#  150
#  23673
#  39414
#  64121
#  80890
#  101559
#  122122
#  139536
#  157145
#  174408
#  199274
#  218231
#  238598
#  252954
#  275604
#  296177
#  316576
#  333332
#
# Disc length: 4675 seconds
#
# Revision: 0
# Processed by: cddbd v1.5.1PL0 Copyright (c) Steve Scherf et al.
# Submitted via: AltoMP3_Maker 3.0
#
DISCID=0b124112
DTITLE=Various artist - 4 Generaties Dihal
DYEAR=1900
DGENRE=
TTITLE0=Payo Ji Maito Rattan
TTITLE1=Madja Loete Sadhoe
TTITLE2=Hollandwa Me Madja Kare Re
TTITLE3=Dene Badhaai
TTITLE4=Jag Me Soender Hai Do Naam
TTITLE5=Bhayya Tere Djanam Diwesh Par
TTITLE6=Bigrie Banade Merie
TTITLE7=Aho Banwarie
TTITLE8=Tere Bina Piya
TTITLE9=Pilade Prabhoe
TTITLE10=Badhayya Badjeh Aangan Re
TTITLE11=Soender Rang Hai
TTITLE12=Milanwa Me
TTITLE13=Sada Raho Ishwar Ke Dhyaan Me
TTITLE14=Parakwa Me Moor Djiya
TTITLE15=Tu Jai Kaha Rani
TTITLE16=Bharosa Kar
TTITLE17=Bhadjle Pyare Ohm Ka Naam
EXTD=
EXTT0=
EXTT1=
EXTT2=
EXTT3=
EXTT4=
EXTT5=
EXTT6=
EXTT7=
EXTT8=
EXTT9=
EXTT10=
EXTT11=
EXTT12=
EXTT13=
EXTT14=
EXTT15=
EXTT16=
EXTT17=
PLAYORDER=
